<mxfile host="drawio-plugin" modified="2023-04-05T20:43:58.968Z" agent="5.0 (Windows NT 6.2; Win64; x64) AppleWebKit/537.36 (KHTML, like Gecko) Chrome/104.0.5112.102 Safari/537.36" etag="6_tqiGE4_6C8W3QSJ1bn" version="20.5.3" type="embed"><diagram id="C5RBs43oDa-KdzZeNtuy" name="Page-1"><mxGraphModel dx="983" dy="535" grid="1" gridSize="10" guides="1" tooltips="1" connect="1" arrows="1" fold="1" page="1" pageScale="1" pageWidth="827" pageHeight="1169" math="0" shadow="0"><root><mxCell id="WIyWlLk6GJQsqaUBKTNV-0"/><mxCell id="WIyWlLk6GJQsqaUBKTNV-1" parent="WIyWlLk6GJQsqaUBKTNV-0"/><mxCell id="X5jkI3r3FwCdlGRwAqA--0" value="&lt;span style=&quot;font-style: italic;&quot;&gt;SchlangeMitArray&lt;/span&gt;" style="swimlane;fontStyle=0;childLayout=stackLayout;horizontal=1;startSize=26;fillColor=none;horizontalStack=0;resizeParent=1;resizeParentMax=0;resizeLast=0;collapsible=1;marginBottom=0;whiteSpace=wrap;html=1;" parent="WIyWlLk6GJQsqaUBKTNV-1" vertex="1"><mxGeometry x="229" y="390" width="230" height="82" as="geometry"/></mxCell><mxCell id="X5jkI3r3FwCdlGRwAqA--1" value="- speicher: int[]" style="text;strokeColor=none;fillColor=none;align=left;verticalAlign=top;spacingLeft=4;spacingRight=4;overflow=hidden;rotatable=0;points=[[0,0.5],[1,0.5]];portConstraint=eastwest;whiteSpace=wrap;html=1;" parent="X5jkI3r3FwCdlGRwAqA--0" vertex="1"><mxGeometry y="26" width="230" height="22" as="geometry"/></mxCell><mxCell id="X5jkI3r3FwCdlGRwAqA--30" value="" style="line;strokeWidth=1;fillColor=none;align=left;verticalAlign=middle;spacingTop=-1;spacingLeft=3;spacingRight=3;rotatable=0;labelPosition=right;points=[];portConstraint=eastwest;strokeColor=inherit;" parent="X5jkI3r3FwCdlGRwAqA--0" vertex="1"><mxGeometry y="48" width="230" height="8" as="geometry"/></mxCell><mxCell id="X5jkI3r3FwCdlGRwAqA--31" value="+&amp;nbsp;SchlangeMitArray(maxGroesse: int)" style="text;strokeColor=none;fillColor=none;align=left;verticalAlign=top;spacingLeft=4;spacingRight=4;overflow=hidden;rotatable=0;points=[[0,0.5],[1,0.5]];portConstraint=eastwest;whiteSpace=wrap;html=1;" parent="X5jkI3r3FwCdlGRwAqA--0" vertex="1"><mxGeometry y="56" width="230" height="26" as="geometry"/></mxCell><mxCell id="X5jkI3r3FwCdlGRwAqA--4" value="&lt;span style=&quot;font-style: italic;&quot;&gt;Ubung0.StapelMitArray&lt;/span&gt;" style="swimlane;fontStyle=0;childLayout=stackLayout;horizontal=1;startSize=26;fillColor=none;horizontalStack=0;resizeParent=1;resizeParentMax=0;resizeLast=0;collapsible=1;marginBottom=0;whiteSpace=wrap;html=1;" parent="WIyWlLk6GJQsqaUBKTNV-1" vertex="1"><mxGeometry x="10" y="390" width="200" height="56" as="geometry"/></mxCell><mxCell id="X5jkI3r3FwCdlGRwAqA--5" value="- speicher: int[]" style="text;strokeColor=none;fillColor=none;align=left;verticalAlign=top;spacingLeft=4;spacingRight=4;overflow=hidden;rotatable=0;points=[[0,0.5],[1,0.5]];portConstraint=eastwest;whiteSpace=wrap;html=1;" parent="X5jkI3r3FwCdlGRwAqA--4" vertex="1"><mxGeometry y="26" width="200" height="22" as="geometry"/></mxCell><mxCell id="X5jkI3r3FwCdlGRwAqA--25" value="" style="line;strokeWidth=1;fillColor=none;align=left;verticalAlign=middle;spacingTop=-1;spacingLeft=3;spacingRight=3;rotatable=0;labelPosition=right;points=[];portConstraint=eastwest;strokeColor=inherit;" parent="X5jkI3r3FwCdlGRwAqA--4" vertex="1"><mxGeometry y="48" width="200" height="8" as="geometry"/></mxCell><mxCell id="X5jkI3r3FwCdlGRwAqA--8" value="&amp;lt;interface&amp;gt;&lt;br&gt;Ubung0.Puffer" style="swimlane;fontStyle=0;childLayout=stackLayout;horizontal=1;startSize=26;fillColor=none;horizontalStack=0;resizeParent=1;resizeParentMax=0;resizeLast=0;collapsible=1;marginBottom=0;whiteSpace=wrap;html=1;" parent="WIyWlLk6GJQsqaUBKTNV-1" vertex="1"><mxGeometry x="150" y="10" width="140" height="172" as="geometry"/></mxCell><mxCell id="X5jkI3r3FwCdlGRwAqA--26" value="" style="line;strokeWidth=1;fillColor=none;align=left;verticalAlign=middle;spacingTop=-1;spacingLeft=3;spacingRight=3;rotatable=0;labelPosition=right;points=[];portConstraint=eastwest;strokeColor=inherit;" parent="X5jkI3r3FwCdlGRwAqA--8" vertex="1"><mxGeometry y="26" width="140" height="8" as="geometry"/></mxCell><mxCell id="X5jkI3r3FwCdlGRwAqA--9" value="+ isEmpty(): bool" style="text;strokeColor=none;fillColor=none;align=left;verticalAlign=top;spacingLeft=4;spacingRight=4;overflow=hidden;rotatable=0;points=[[0,0.5],[1,0.5]];portConstraint=eastwest;whiteSpace=wrap;html=1;" parent="X5jkI3r3FwCdlGRwAqA--8" vertex="1"><mxGeometry y="34" width="140" height="26" as="geometry"/></mxCell><mxCell id="X5jkI3r3FwCdlGRwAqA--10" value="+ size(): int" style="text;strokeColor=none;fillColor=none;align=left;verticalAlign=top;spacingLeft=4;spacingRight=4;overflow=hidden;rotatable=0;points=[[0,0.5],[1,0.5]];portConstraint=eastwest;whiteSpace=wrap;html=1;" parent="X5jkI3r3FwCdlGRwAqA--8" vertex="1"><mxGeometry y="60" width="140" height="26" as="geometry"/></mxCell><mxCell id="X5jkI3r3FwCdlGRwAqA--11" value="+ capacity(): int" style="text;strokeColor=none;fillColor=none;align=left;verticalAlign=top;spacingLeft=4;spacingRight=4;overflow=hidden;rotatable=0;points=[[0,0.5],[1,0.5]];portConstraint=eastwest;whiteSpace=wrap;html=1;" parent="X5jkI3r3FwCdlGRwAqA--8" vertex="1"><mxGeometry y="86" width="140" height="26" as="geometry"/></mxCell><mxCell id="X5jkI3r3FwCdlGRwAqA--12" value="&amp;nbsp;+ insert(elm: int): void" style="text;html=1;align=left;verticalAlign=middle;resizable=0;points=[];autosize=1;strokeColor=none;fillColor=none;" parent="X5jkI3r3FwCdlGRwAqA--8" vertex="1"><mxGeometry y="112" width="140" height="30" as="geometry"/></mxCell><mxCell id="X5jkI3r3FwCdlGRwAqA--13" value="&amp;nbsp;+ remove(): int" style="text;html=1;align=left;verticalAlign=middle;resizable=0;points=[];autosize=1;strokeColor=none;fillColor=none;" parent="X5jkI3r3FwCdlGRwAqA--8" vertex="1"><mxGeometry y="142" width="140" height="30" as="geometry"/></mxCell><mxCell id="X5jkI3r3FwCdlGRwAqA--19" style="edgeStyle=orthogonalEdgeStyle;rounded=0;orthogonalLoop=1;jettySize=auto;html=1;entryX=0.499;entryY=1.124;entryDx=0;entryDy=0;entryPerimeter=0;" parent="WIyWlLk6GJQsqaUBKTNV-1" source="X5jkI3r3FwCdlGRwAqA--14" target="X5jkI3r3FwCdlGRwAqA--13" edge="1"><mxGeometry relative="1" as="geometry"/></mxCell><mxCell id="X5jkI3r3FwCdlGRwAqA--23" style="edgeStyle=orthogonalEdgeStyle;rounded=0;orthogonalLoop=1;jettySize=auto;html=1;entryX=0.5;entryY=0;entryDx=0;entryDy=0;dashed=1;" parent="WIyWlLk6GJQsqaUBKTNV-1" source="X5jkI3r3FwCdlGRwAqA--14" target="X5jkI3r3FwCdlGRwAqA--4" edge="1"><mxGeometry relative="1" as="geometry"/></mxCell><mxCell id="X5jkI3r3FwCdlGRwAqA--14" value="&amp;lt;interface&amp;gt;&lt;br&gt;Ubung0.Stapel" style="swimlane;fontStyle=0;childLayout=stackLayout;horizontal=1;startSize=26;fillColor=none;horizontalStack=0;resizeParent=1;resizeParentMax=0;resizeLast=0;collapsible=1;marginBottom=0;whiteSpace=wrap;html=1;" parent="WIyWlLk6GJQsqaUBKTNV-1" vertex="1"><mxGeometry x="40" y="260" width="140" height="60" as="geometry"/></mxCell><mxCell id="X5jkI3r3FwCdlGRwAqA--27" value="" style="line;strokeWidth=1;fillColor=none;align=left;verticalAlign=middle;spacingTop=-1;spacingLeft=3;spacingRight=3;rotatable=0;labelPosition=right;points=[];portConstraint=eastwest;strokeColor=inherit;" parent="X5jkI3r3FwCdlGRwAqA--14" vertex="1"><mxGeometry y="26" width="140" height="8" as="geometry"/></mxCell><mxCell id="X5jkI3r3FwCdlGRwAqA--15" value="+ top(): int" style="text;strokeColor=none;fillColor=none;align=left;verticalAlign=top;spacingLeft=4;spacingRight=4;overflow=hidden;rotatable=0;points=[[0,0.5],[1,0.5]];portConstraint=eastwest;whiteSpace=wrap;html=1;" parent="X5jkI3r3FwCdlGRwAqA--14" vertex="1"><mxGeometry y="34" width="140" height="26" as="geometry"/></mxCell><mxCell id="X5jkI3r3FwCdlGRwAqA--22" style="edgeStyle=orthogonalEdgeStyle;rounded=0;orthogonalLoop=1;jettySize=auto;html=1;entryX=0.5;entryY=1.147;entryDx=0;entryDy=0;entryPerimeter=0;" parent="WIyWlLk6GJQsqaUBKTNV-1" source="X5jkI3r3FwCdlGRwAqA--20" target="X5jkI3r3FwCdlGRwAqA--13" edge="1"><mxGeometry relative="1" as="geometry"/></mxCell><mxCell id="X5jkI3r3FwCdlGRwAqA--24" style="edgeStyle=orthogonalEdgeStyle;rounded=0;orthogonalLoop=1;jettySize=auto;html=1;entryX=0.5;entryY=0;entryDx=0;entryDy=0;dashed=1;" parent="WIyWlLk6GJQsqaUBKTNV-1" source="X5jkI3r3FwCdlGRwAqA--20" target="X5jkI3r3FwCdlGRwAqA--0" edge="1"><mxGeometry relative="1" as="geometry"/></mxCell><mxCell id="X5jkI3r3FwCdlGRwAqA--20" value="&amp;lt;interface&amp;gt;&lt;br&gt;Ubung0.Schlange" style="swimlane;fontStyle=0;childLayout=stackLayout;horizontal=1;startSize=26;fillColor=none;horizontalStack=0;resizeParent=1;resizeParentMax=0;resizeLast=0;collapsible=1;marginBottom=0;whiteSpace=wrap;html=1;" parent="WIyWlLk6GJQsqaUBKTNV-1" vertex="1"><mxGeometry x="274" y="260" width="140" height="60" as="geometry"/></mxCell><mxCell id="X5jkI3r3FwCdlGRwAqA--28" value="" style="line;strokeWidth=1;fillColor=none;align=left;verticalAlign=middle;spacingTop=-1;spacingLeft=3;spacingRight=3;rotatable=0;labelPosition=right;points=[];portConstraint=eastwest;strokeColor=inherit;" parent="X5jkI3r3FwCdlGRwAqA--20" vertex="1"><mxGeometry y="26" width="140" height="8" as="geometry"/></mxCell><mxCell id="X5jkI3r3FwCdlGRwAqA--21" value="+ front(): int" style="text;strokeColor=none;fillColor=none;align=left;verticalAlign=top;spacingLeft=4;spacingRight=4;overflow=hidden;rotatable=0;points=[[0,0.5],[1,0.5]];portConstraint=eastwest;whiteSpace=wrap;html=1;" parent="X5jkI3r3FwCdlGRwAqA--20" vertex="1"><mxGeometry y="34" width="140" height="26" as="geometry"/></mxCell><mxCell id="X5jkI3r3FwCdlGRwAqA--6" value="+ Ubung0.StapelMitArray(maxGroesse: int)" style="text;strokeColor=none;fillColor=none;align=left;verticalAlign=top;spacingLeft=4;spacingRight=4;overflow=hidden;rotatable=0;points=[[0,0.5],[1,0.5]];portConstraint=eastwest;whiteSpace=wrap;html=1;" parent="WIyWlLk6GJQsqaUBKTNV-1" vertex="1"><mxGeometry x="10" y="450" width="200" height="26" as="geometry"/></mxCell></root></mxGraphModel></diagram></mxfile>